<svg width="21" height="19" viewBox="0 0 21 19" fill="none" xmlns="http://www.w3.org/2000/svg">
<rect width="21" height="19" rx="4" fill="#112436"/>
<path d="M14.65 13.65C14.4567 13.8433 14.1433 13.8433 13.95 13.65L11.7829 11.4829C11.4226 11.1226 10.8503 11.1066 10.3756 11.292C10.3466 11.3033 10.3172 11.3143 10.2875 11.325C9.9625 11.4417 9.61667 11.5 9.25 11.5C8.34167 11.5 7.573 11.1853 6.944 10.556C6.315 9.92667 6.00033 9.158 6 8.25C5.99967 7.342 6.31433 6.57333 6.944 5.944C7.57367 5.31467 8.34233 5 9.25 5C10.1577 5 10.9265 5.31467 11.5565 5.944C12.1865 6.57333 12.501 7.342 12.5 8.25C12.5 8.61667 12.4417 8.9625 12.325 9.2875C12.3143 9.31719 12.3033 9.34658 12.292 9.37564C12.1066 9.85027 12.1226 10.4226 12.4829 10.7829L14.65 12.95C14.8433 13.1433 14.8433 13.4567 14.65 13.65V13.65ZM9.25 10.5C9.875 10.5 10.4063 10.2813 10.844 9.844C11.2817 9.40667 11.5003 8.87533 11.5 8.25C11.4997 7.62467 11.281 7.0935 10.844 6.6565C10.407 6.2195 9.87567 6.00067 9.25 6C8.62433 5.99933 8.09317 6.21817 7.6565 6.6565C7.21983 7.09483 7.001 7.626 7 8.25C6.999 8.874 7.21783 9.40533 7.6565 9.844C8.09517 10.2827 8.62633 10.5013 9.25 10.5Z" fill="white"/>
</svg>