<svg viewBox="0 0 180 36" fill="none" preserveAspectRatio="none" xmlns="http://www.w3.org/2000/svg">
<path d="M0.367188 0.0224609L3.26367 0.21582H3.26855L6.1377 0.428711C8.9915 0.646257 11.8063 0.878677 14.583 1.12598H14.584C18.3163 1.44537 21.9102 1.78811 25.3652 2.1543L27.8916 2.42383C29.5643 2.60437 31.213 2.78643 32.8369 2.9707L35.2539 3.24902H35.2598L37.5781 3.53027C39.8814 3.81177 42.1369 4.09495 44.3457 4.37891C47.2889 4.75727 50.1339 5.12845 52.8799 5.49219C54.2511 5.67381 55.5987 5.84995 56.9199 6.02051L60.8086 6.51562L60.8145 6.5166L62.7266 6.7627C63.9925 6.92326 65.2403 7.07649 66.4697 7.2207L68.3008 7.43066L68.3076 7.43164L69.2236 7.53809C71.0506 7.74788 72.8522 7.93352 74.627 8.09473L75.5117 8.17383L75.5215 8.1748L76.4141 8.25586C78.4905 8.44163 80.5314 8.5941 82.5361 8.71387C84.8282 8.8508 87.1019 8.94942 89.3574 9.00879L91.0693 9.04004C92.7818 9.06562 94.4929 9.0746 96.2021 9.06738L97.0898 9.06152C98.8645 9.04621 100.645 9.01115 102.433 8.95703L103.327 8.92871L103.338 8.92773H103.347C105.164 8.88109 107.02 8.81938 108.914 8.74316L110.82 8.66309L110.829 8.66211L112.757 8.58105C114.703 8.49792 116.711 8.40796 118.782 8.31055L123.044 8.09668L127.431 7.88086H127.439L132.069 7.67285L136.888 7.46094L136.896 7.45996H136.895C140.231 7.3249 143.709 7.19671 147.326 7.07422C150.04 6.98231 152.825 6.89627 155.682 6.81738L158.562 6.74121H158.574L161.499 6.68359C164.422 6.6308 167.337 6.58975 170.245 6.55957C173.155 6.52937 176.049 6.51334 178.929 6.51172L180 6.5127V36H0V0C0.122341 0.00785412 0.244788 0.0145373 0.367188 0.0224609Z" fill="#D6C7B2"/>
<path d="M136.955 8.03314C138.714 7.99373 140.453 7.98944 142.172 8.02045L142.908 8.03509L142.912 8.03607L143.611 8.05463C145.246 8.10402 146.899 8.18287 148.567 8.29095C150.478 8.41472 152.368 8.57692 154.234 8.77728H154.233C156.108 8.96089 157.987 9.1779 159.869 9.42865C161.8 9.67101 163.748 9.94006 165.715 10.2343L167.178 10.4521C168.655 10.6737 170.174 10.9058 171.735 11.1484C173.816 11.4716 175.958 11.8099 178.159 12.163C178.765 12.2602 179.379 12.3552 180 12.4531V36.0009H0V18.2861C0.544886 18.2802 1.09013 18.2732 1.63574 18.2675C3.36639 18.2495 5.09087 18.2329 6.80762 18.2167L11.9355 18.1708L14.543 18.1484C17.1419 18.1243 19.7241 18.0959 22.2891 18.0634H22.29C25.6813 18.0126 29.0715 17.9502 32.458 17.8769C35.8374 17.8038 39.1692 17.7086 42.4531 17.5908C45.7334 17.473 48.9516 17.329 52.1064 17.1591H52.1074C55.3159 16.9819 58.4755 16.7716 61.585 16.5273L61.5869 16.5263L62.7295 16.4365C65.3903 16.2219 68.0144 15.9817 70.5996 15.7158L70.6055 15.7148L71.7217 15.6025C74.3164 15.3378 76.8419 15.0557 79.2979 14.7568H79.3037L81.4229 14.5029C83.5307 14.2463 85.6057 13.9813 87.6455 13.7079L87.6504 13.707L89.7002 13.4374C91.7367 13.1667 93.7325 12.8924 95.6865 12.6132L95.6924 12.6122L99.5977 12.0673C100.882 11.8866 102.148 11.7061 103.396 11.5273C105.898 11.169 108.347 10.8298 110.742 10.5087L112.512 10.2656C114.275 10.0271 116.017 9.80202 117.737 9.5888C120.033 9.30434 122.269 9.05666 124.443 8.84662L125.267 8.76459C127.18 8.5771 129.039 8.42337 130.843 8.30463C132.907 8.16877 134.944 8.07819 136.955 8.03314Z" fill="currentColor"/>
</svg>
