<svg viewBox="0 0 180 33" fill="none" preserveAspectRatio="none" xmlns="http://www.w3.org/2000/svg">
<path d="M180 24.2275L179.608 24.3105C178.25 24.5928 176.86 24.8676 175.44 25.1348C174.496 25.3125 173.545 25.4887 172.587 25.6631L169.691 26.1816L169.688 26.1826L166.767 26.6729L163.806 27.1553H163.801L160.813 27.6104L157.786 28.0537L157.776 28.0557L156.205 28.2637C154.632 28.4688 153.046 28.667 151.447 28.8584L149.828 29.0547C148.201 29.2477 146.545 29.4298 144.862 29.6016L144.861 29.6025C143.226 29.7758 141.542 29.9403 139.809 30.0977L138.059 30.2529H138.058L134.598 30.5371L131.048 30.8096H131.043L129.235 30.9316C128.02 31.0115 126.781 31.0884 125.521 31.1611L123.614 31.2676H123.612L121.736 31.3623C119.851 31.4541 117.934 31.5383 115.986 31.6152C113.388 31.7179 110.739 31.8012 108.041 31.8662V31.8672L103.88 31.9521L99.6865 32.0195H99.6836L97.5273 32.0352C95.3616 32.0472 93.167 32.0492 90.9453 32.04L88.7568 32.0283C86.5541 32.0131 84.3044 31.9866 82.0088 31.9492L79.6963 31.916C77.3745 31.8779 75.0272 31.8254 72.6553 31.7598C69.5602 31.6741 66.4085 31.5758 63.2031 31.4639H63.2012C61.6367 31.4031 60.0579 31.3388 58.4658 31.2715L53.6475 31.0596C50.4733 30.9136 47.2873 30.7439 44.0898 30.5508H44.0879C40.8803 30.369 37.6825 30.1761 34.4961 29.9717H34.4941C31.3183 29.7559 28.1527 29.5285 24.998 29.29H24.9951C21.917 29.0421 18.8489 28.7823 15.792 28.5117C12.7231 28.2523 9.70692 27.9719 6.74609 27.6689C4.44871 27.4435 2.19984 27.2077 0 26.9639V0H180V24.2275Z" fill="currentColor"/>
</svg>
