<svg width="106" height="106" viewBox="0 0 106 106" fill="none" xmlns="http://www.w3.org/2000/svg">
<rect width="106" height="106" rx="18" fill="#F9FAFC"/>
<path d="M41.0583 42.2836C40.7534 43.0663 40.5186 43.8818 40.3611 44.7201C39.8835 47.2609 40.1284 49.8942 41.0652 52.2875C42.002 54.6809 43.5882 56.7272 45.6237 58.1664C47.6592 59.6056 50.0527 60.3735 52.5007 60.3735C53.33 60.3735 54.1548 60.2836 54.9636 60.1098L67.5339 76.2231C61.6624 83.5227 52.5598 95.559 52.5007 95.6371C52.443 95.5608 37.259 75.479 33.4577 71.4565C29.6492 67.4263 22.032 57.4309 22.032 47.2748C21.842 42.9876 22.5007 38.7052 23.9646 34.7026C25.0793 31.6549 26.6431 28.8209 28.5915 26.3022L41.0583 42.2836Z" fill="#183153"/>
<path d="M52.5008 15.0339C56.5523 14.8328 60.5991 15.5287 64.3817 17.0778C68.1642 18.627 71.5996 20.995 74.4676 24.03C77.3356 27.0649 79.573 30.7001 81.0369 34.7028C82.5008 38.7055 83.1586 42.9878 82.9686 47.2751C82.9686 54.8102 78.7741 62.2554 75.0545 67.2429L63.7459 52.7448C63.8116 52.5937 63.8761 52.4417 63.9363 52.2878C64.5584 50.6986 64.8787 48.9951 64.8787 47.2751C64.8787 44.6846 64.1518 42.1526 62.7918 39.9987C61.4317 37.8447 59.4989 36.1659 57.2371 35.1745C54.9754 34.1832 52.4868 33.923 50.0858 34.4284C49.9075 34.4659 49.7305 34.5087 49.5545 34.5544L37.2215 18.7429C38.3168 18.1128 39.4519 17.5562 40.6199 17.0778C44.4025 15.5288 48.4493 14.8328 52.5008 15.0339Z" fill="#B49D7E"/>
</svg>
