<svg xmlns="http://www.w3.org/2000/svg" version="1.1" xmlns:xlink="http://www.w3.org/1999/xlink" width="1000" height="1000"><style>
    #light-icon {
      display: inline;
    }
    #dark-icon {
      display: none;
    }

    @media (prefers-color-scheme: dark) {
      #light-icon {
        display: none;
      }
      #dark-icon {
        display: inline;
      }
    }
  </style><g id="light-icon"><svg xmlns="http://www.w3.org/2000/svg" version="1.1" xmlns:xlink="http://www.w3.org/1999/xlink" width="1000" height="1000"><g><g transform="matrix(55.55555555555556,0,0,55.55555555555556,111.11111111111109,0)"><svg xmlns="http://www.w3.org/2000/svg" version="1.1" xmlns:xlink="http://www.w3.org/1999/xlink" width="14" height="18"><svg width="14" height="18" viewBox="0 0 14 18" fill="none" xmlns="http://www.w3.org/2000/svg">
<path d="M4.2845 6.10657C4.21609 6.27889 4.16267 6.45814 4.12728 6.6427C4.01994 7.20286 4.07497 7.78397 4.28548 8.31165C4.49598 8.83918 4.85259 9.29022 5.30989 9.60754C5.76735 9.92484 6.30561 10.0948 6.85579 10.0948C7.04216 10.0948 7.22774 10.0746 7.4095 10.0363L10.2357 13.59C8.91159 15.2048 6.85579 17.8702 6.85579 17.8702C6.83259 17.8401 3.42867 13.4238 2.57552 12.5382C1.71938 11.6494 0.0071587 9.44537 0.0071587 7.20618C-0.0354843 6.26105 0.112765 5.31709 0.441729 4.43469C0.692281 3.76268 1.04379 3.13755 1.48177 2.58215L4.2845 6.10657Z" fill="#102E4A"></path>
<path d="M6.85565 0.0974481C7.76628 0.0531142 8.67637 0.206128 9.52655 0.547643C10.3768 0.889223 11.1495 1.41165 11.7941 2.08085C12.4387 2.75001 12.9417 3.55185 13.2707 4.43436C13.5996 5.31675 13.7469 6.26073 13.7043 7.20585C13.7043 8.86722 12.761 10.5085 11.925 11.6082L9.38104 8.40995C9.39565 8.37693 9.41352 8.34494 9.42694 8.31132C9.56668 7.961 9.63885 7.58501 9.63885 7.20585C9.63877 6.6348 9.47476 6.07617 9.16913 5.60135C8.86345 5.12667 8.42925 4.75641 7.92108 4.53788C7.41278 4.31932 6.85328 4.26246 6.31366 4.37382C6.27372 4.38206 6.23396 4.39211 6.19452 4.40214L3.42401 0.916784C3.66991 0.778095 3.92353 0.652979 4.18573 0.547643C5.03577 0.206188 5.94519 0.0531903 6.85565 0.0974481Z" fill="#BC945F"></path>
</svg></svg></g></g></svg></g><g id="dark-icon"><svg xmlns="http://www.w3.org/2000/svg" version="1.1" xmlns:xlink="http://www.w3.org/1999/xlink" width="1000" height="1000"><g><g transform="matrix(55.55555555555556,0,0,55.55555555555556,111.11111111111109,0)"><svg xmlns="http://www.w3.org/2000/svg" version="1.1" xmlns:xlink="http://www.w3.org/1999/xlink" width="14" height="18"><svg width="14" height="18" viewBox="0 0 14 18" fill="none" xmlns="http://www.w3.org/2000/svg">
<path d="M4.2845 6.10657C4.21609 6.27889 4.16267 6.45814 4.12728 6.6427C4.01994 7.20286 4.07497 7.78397 4.28548 8.31165C4.49598 8.83918 4.85259 9.29022 5.30989 9.60754C5.76735 9.92484 6.30561 10.0948 6.85579 10.0948C7.04216 10.0948 7.22774 10.0746 7.4095 10.0363L10.2357 13.59C8.91159 15.2048 6.85579 17.8702 6.85579 17.8702C6.83259 17.8401 3.42867 13.4238 2.57552 12.5382C1.71938 11.6494 0.0071587 9.44537 0.0071587 7.20618C-0.0354843 6.26105 0.112765 5.31709 0.441729 4.43469C0.692281 3.76268 1.04379 3.13755 1.48177 2.58215L4.2845 6.10657Z" fill="white"></path>
<path d="M6.85565 0.0974481C7.76628 0.0531142 8.67637 0.206128 9.52655 0.547643C10.3768 0.889223 11.1495 1.41165 11.7941 2.08085C12.4387 2.75001 12.9417 3.55185 13.2707 4.43436C13.5996 5.31675 13.7469 6.26073 13.7043 7.20585C13.7043 8.86722 12.761 10.5085 11.925 11.6082L9.38104 8.40995C9.39565 8.37693 9.41352 8.34494 9.42694 8.31132C9.56668 7.961 9.63885 7.58501 9.63885 7.20585C9.63877 6.6348 9.47476 6.07617 9.16913 5.60135C8.86345 5.12667 8.42925 4.75641 7.92108 4.53788C7.41278 4.31932 6.85328 4.26246 6.31366 4.37382C6.27372 4.38206 6.23396 4.39211 6.19452 4.40214L3.42401 0.916784C3.66991 0.778095 3.92353 0.652979 4.18573 0.547643C5.03577 0.206188 5.94519 0.0531903 6.85565 0.0974481Z" fill="#BC945F"></path>
</svg></svg></g></g></svg></g></svg>