<svg width="64" height="64" viewBox="0 0 64 64" fill="none" xmlns="http://www.w3.org/2000/svg">
<rect width="64" height="64" fill="#112436"/>
<path d="M26.6767 27.1848C26.5377 27.5346 26.4311 27.899 26.3593 28.2737C26.1419 29.4084 26.2531 30.5847 26.6796 31.6536C27.1061 32.7223 27.8283 33.6358 28.7548 34.2786C29.6815 34.9213 30.7712 35.2648 31.8857 35.2649C32.2634 35.2649 32.6394 35.2244 33.0078 35.1467L38.7304 42.343C36.0485 45.6137 31.8857 51.0139 31.8857 51.0139C31.8441 50.96 24.9445 42.0086 23.2158 40.2141C21.4817 38.414 18.0147 33.9506 18.0146 29.4153C17.9281 27.5005 18.227 25.5877 18.8935 23.8C19.401 22.439 20.1129 21.173 20.9999 20.0481L26.6767 27.1848Z" fill="white"/>
<path d="M31.8865 15.0146C33.731 14.9249 35.5736 15.2359 37.2957 15.9277C39.0177 16.6196 40.5817 17.6778 41.8875 19.0332C43.1931 20.3886 44.2122 22.0123 44.8787 23.7998C45.545 25.5873 45.844 27.4995 45.7576 29.414C45.7576 32.7792 43.8475 36.1036 42.1541 38.331L37.0046 31.8564C37.0345 31.789 37.0651 31.7219 37.0925 31.6533C37.3757 30.9436 37.5212 30.1822 37.5212 29.414C37.5212 28.2571 37.1912 27.126 36.572 26.164C35.9528 25.2021 35.0724 24.4525 34.0427 24.0097C33.013 23.567 31.88 23.4511 30.7869 23.6767C30.7057 23.6935 30.6248 23.712 30.5447 23.7324L24.9304 16.6709C25.4289 16.3897 25.9457 16.1413 26.4773 15.9277C28.1994 15.2359 30.042 14.9248 31.8865 15.0146Z" fill="#C3A47B"/>
<path d="M22.7215 15.7096C22.7397 15.7325 22.7471 15.759 22.7437 15.789C22.7402 15.819 22.727 15.8431 22.704 15.8613L22.1996 16.2616C22.1766 16.2799 22.1501 16.2873 22.1202 16.2838C22.0902 16.2804 22.0661 16.2672 22.0479 16.2442L21.5132 15.5706L20.0782 16.7094C20.0553 16.7277 20.0288 16.7351 19.9988 16.7316C19.9688 16.7282 19.9447 16.7149 19.9265 16.692L19.4143 16.0465C19.396 16.0236 19.3886 15.9971 19.3921 15.9671C19.3955 15.9371 19.4087 15.913 19.4317 15.8948L20.8667 14.7559L20.3321 14.0823C20.3138 14.0593 20.3065 14.0329 20.3099 14.0029C20.3134 13.9729 20.3266 13.9488 20.3495 13.9306L20.854 13.5302C20.877 13.512 20.9034 13.5046 20.9334 13.508C20.9634 13.5115 20.9875 13.5247 21.0057 13.5477L22.7215 15.7096ZM23.116 20.5113C23.111 20.5221 23.1032 20.5317 23.0928 20.54C23.074 20.5549 23.0515 20.5608 23.0253 20.5578C23.0028 20.5552 22.9841 20.5445 22.9692 20.5257L22.4047 19.8145C22.3815 19.7853 22.3673 19.7523 22.362 19.7156C22.3584 19.6811 22.3639 19.6494 22.3786 19.6208L22.7801 18.8527L22.5713 18.5895L21.9572 19.0769C21.9342 19.0951 21.9077 19.1025 21.8777 19.0991C21.8478 19.0956 21.8237 19.0824 21.8054 19.0594L21.2683 18.3827C21.2501 18.3597 21.2427 18.3332 21.2461 18.3032C21.2496 18.2733 21.2628 18.2492 21.2858 18.2309L23.3098 16.6246C23.3328 16.6063 23.3592 16.5989 23.3892 16.6024C23.4192 16.6058 23.4433 16.619 23.4615 16.642L24.4288 17.8608C24.578 18.0488 24.6779 18.2368 24.7284 18.4248C24.7805 18.6149 24.779 18.7932 24.7238 18.9596C24.6686 19.1259 24.5637 19.2705 24.4091 19.3931C24.1251 19.6186 23.8323 19.6722 23.5308 19.554L23.116 20.5113ZM23.4617 18.5211C23.4982 18.5671 23.541 18.591 23.5901 18.5928C23.6414 18.593 23.6899 18.5749 23.7359 18.5384C23.7819 18.502 23.8116 18.4579 23.8251 18.4063C23.8424 18.3552 23.832 18.3056 23.7938 18.2575L23.483 17.8659L23.1509 18.1295L23.4617 18.5211ZM25.3735 22.2362L25.8236 22.8033C25.8418 22.8262 25.8492 22.8527 25.8458 22.8827C25.8423 22.9127 25.8291 22.9368 25.8061 22.955L25.333 23.3305C25.3101 23.3487 25.2836 23.3561 25.2536 23.3527C25.2236 23.3492 25.1995 23.336 25.1813 23.313L23.6048 21.3266C23.5865 21.3036 23.5791 21.2772 23.5826 21.2472C23.586 21.2172 23.5993 21.1931 23.6222 21.1749L24.0953 20.7994C24.1183 20.7812 24.1448 20.7738 24.1748 20.7772C24.2047 20.7807 24.2288 20.7939 24.2471 20.8168L24.7021 21.3902L25.6107 20.6691L25.1557 20.0957C25.1375 20.0727 25.1301 20.0463 25.1335 20.0163C25.137 19.9863 25.1502 19.9622 25.1731 19.944L25.6463 19.5685C25.6692 19.5503 25.6957 19.5429 25.7257 19.5463C25.7556 19.5498 25.7798 19.563 25.798 19.586L27.3745 21.5724C27.3927 21.5954 27.4001 21.6218 27.3967 21.6518C27.3932 21.6818 27.38 21.7059 27.357 21.7241L26.8839 22.0996C26.861 22.1178 26.8345 22.1252 26.8045 22.1218C26.7745 22.1183 26.7504 22.1051 26.7322 22.0821L26.2821 21.515L25.3735 22.2362ZM29.2012 23.874C29.357 24.0704 29.4595 24.2682 29.5087 24.4674C29.558 24.6667 29.5558 24.8506 29.5022 25.019C29.4487 25.1875 29.3509 25.3281 29.2089 25.4408C28.9749 25.6265 28.7331 25.6993 28.4834 25.6591C28.2357 25.6174 27.9727 25.421 27.6942 25.0701L27.3659 24.6565L26.7644 25.134C26.7414 25.1522 26.7149 25.1596 26.6849 25.1561C26.655 25.1527 26.6309 25.1395 26.6126 25.1165L26.078 24.4429C26.0598 24.4199 26.0524 24.3934 26.0558 24.3634C26.0593 24.3335 26.0725 24.3094 26.0954 24.2911L28.1195 22.6848C28.1424 22.6665 28.1689 22.6591 28.1989 22.6626C28.2289 22.666 28.253 22.6793 28.2712 22.7022L29.2012 23.874ZM28.2638 24.5975C28.3036 24.6477 28.3497 24.6758 28.4022 24.6818C28.4567 24.6862 28.5091 24.6685 28.5592 24.6287C28.6114 24.5872 28.6426 24.5386 28.6529 24.4829C28.6631 24.4271 28.6483 24.3741 28.6085 24.324L28.2927 23.9261L27.948 24.1996L28.2638 24.5975Z" fill="white"/>
<path d="M31.5625 26.8493C31.7184 27.0457 31.8209 27.2435 31.8701 27.4427C31.9193 27.642 31.9171 27.8258 31.8636 27.9943C31.81 28.1628 31.7122 28.3034 31.5702 28.4161C31.3362 28.6018 31.0944 28.6745 30.8447 28.6344C30.597 28.5926 30.334 28.3963 30.0555 28.0454L29.7272 27.6318L29.1257 28.1092C29.1027 28.1275 29.0762 28.1349 29.0463 28.1314C29.0163 28.128 28.9922 28.1148 28.9739 28.0918L28.4393 27.4182C28.4211 27.3952 28.4137 27.3687 28.4171 27.3387C28.4206 27.3088 28.4338 27.2847 28.4568 27.2664L30.4808 25.6601C30.5038 25.6418 30.5302 25.6344 30.5602 25.6379C30.5902 25.6413 30.6143 25.6545 30.6325 25.6775L31.5625 26.8493ZM30.6252 27.5728C30.665 27.623 30.7111 27.651 30.7635 27.6571C30.8181 27.6614 30.8704 27.6437 30.9205 27.604C30.9727 27.5625 31.004 27.5139 31.0142 27.4581C31.0244 27.4024 31.0096 27.3494 30.9698 27.2993L30.654 26.9014L30.3094 27.1749L30.6252 27.5728ZM31.2255 30.7099C31.1329 30.7391 31.0601 30.7203 31.007 30.6535L30.5371 30.0613C30.5221 30.0425 30.5151 30.0208 30.5161 29.9963C30.5207 29.9721 30.5325 29.9526 30.5513 29.9377L30.5726 29.9259L33.1167 29.02C33.1505 29.0068 33.187 29.0034 33.2261 29.0098C33.2652 29.0162 33.3005 29.0392 33.332 29.0789L34.0233 29.9499C34.0548 29.9896 34.0692 30.0292 34.0666 30.0688C34.0639 30.1083 34.0523 30.1431 34.0318 30.173L32.5718 32.445L32.5555 32.463C32.5367 32.4779 32.5142 32.4839 32.488 32.4809C32.4655 32.4783 32.4468 32.4676 32.4319 32.4488L31.9619 31.8566C31.9088 31.7898 31.9071 31.7146 31.9565 31.6311L32.1137 31.3787L31.5069 30.6142L31.2255 30.7099ZM33.073 29.9943L32.2447 30.2891L32.5978 30.734L33.073 29.9943ZM36.9416 33.627C36.9566 33.6458 36.9617 33.6673 36.957 33.6914C36.9561 33.716 36.9473 33.7349 36.9305 33.7482C36.918 33.7581 36.903 33.7649 36.8855 33.7686L34.9523 34.016L34.2536 34.5705C34.2307 34.5887 34.2042 34.5961 34.1742 34.5927C34.1442 34.5892 34.1201 34.576 34.1019 34.553L33.5723 33.8857C33.554 33.8627 33.5466 33.8362 33.5501 33.8063C33.5535 33.7763 33.5667 33.7522 33.5897 33.7339L34.2884 33.1794L34.9708 31.3561C34.9783 31.3399 34.9874 31.3276 34.9978 31.3193C35.0166 31.3044 35.0372 31.2982 35.0597 31.3008C35.0859 31.3038 35.1065 31.3148 35.1214 31.3336L35.6461 31.9946C35.6925 32.0531 35.7025 32.115 35.676 32.1803L35.3366 33.0267L36.2392 32.9028C36.3163 32.8927 36.3772 32.9158 36.4219 32.9722L36.9416 33.627ZM37.6426 37.6953C37.6609 37.7183 37.6683 37.7448 37.6648 37.7747C37.6614 37.8047 37.6482 37.8288 37.6252 37.8471L37.1521 38.2225C37.1291 38.2408 37.1026 38.2482 37.0727 38.2447C37.0427 38.2413 37.0186 38.2281 37.0003 38.2051L35.4039 36.1936C35.3857 36.1706 35.3783 36.1441 35.3817 36.1142C35.3852 36.0842 35.3984 36.0601 35.4214 36.0419L35.8726 35.6838C35.8997 35.6622 35.9268 35.6492 35.9539 35.6447C35.981 35.6403 36.0029 35.6399 36.0195 35.6438L37.7108 35.9152L37.0071 35.0285C36.9888 35.0055 36.9814 34.9791 36.9849 34.9491C36.9883 34.9191 37.0015 34.895 37.0245 34.8768L37.4976 34.5013C37.5206 34.4831 37.5471 34.4757 37.577 34.4791C37.607 34.4826 37.6311 34.4958 37.6494 34.5188L39.1413 36.3986C39.1596 36.4216 39.167 36.4481 39.1635 36.4781C39.1601 36.508 39.1469 36.5321 39.1239 36.5504L38.6758 36.906C38.632 36.9408 38.5867 36.9546 38.5401 36.9473L36.8494 36.6958L37.6426 37.6953ZM39.5414 40.0878L39.9915 40.6549C40.0098 40.6779 40.0172 40.7044 40.0137 40.7344C40.0103 40.7643 39.997 40.7884 39.9741 40.8067L39.501 41.1822C39.478 41.2004 39.4515 41.2078 39.4215 41.2043C39.3916 41.2009 39.3675 41.1877 39.3492 41.1647L37.7727 39.1783C37.7545 39.1553 37.7471 39.1288 37.7505 39.0988C37.754 39.0689 37.7672 39.0448 37.7902 39.0265L38.2633 38.6511C38.2862 38.6328 38.3127 38.6254 38.3427 38.6289C38.3727 38.6323 38.3968 38.6455 38.415 38.6685L38.8701 39.2419L39.7787 38.5208L39.3236 37.9474C39.3054 37.9244 39.298 37.8979 39.3014 37.868C39.3049 37.838 39.3181 37.8139 39.3411 37.7957L39.8142 37.4202C39.8372 37.4019 39.8636 37.3946 39.8936 37.398C39.9236 37.4014 39.9477 37.4147 39.9659 37.4376L41.5424 39.4241C41.5607 39.447 41.5681 39.4735 41.5646 39.5035C41.5612 39.5335 41.548 39.5576 41.525 39.5758L41.0519 39.9513C41.0289 39.9695 41.0024 39.9769 40.9725 39.9735C40.9425 39.97 40.9184 39.9568 40.9001 39.9338L40.4501 39.3667L39.5414 40.0878ZM42.3389 43.677C42.3572 43.7 42.3646 43.7265 42.3611 43.7564C42.3577 43.7864 42.3444 43.8105 42.3215 43.8287L41.8797 44.1794C41.8567 44.1976 41.8302 44.205 41.8003 44.2015C41.7703 44.1981 41.7462 44.1849 41.728 44.1619L40.1564 42.1817C40.1382 42.1588 40.1308 42.1323 40.1342 42.1023C40.1377 42.0724 40.1509 42.0482 40.1739 42.03L42.1979 40.4237C42.2209 40.4054 42.2473 40.398 42.2773 40.4015C42.3073 40.4049 42.3314 40.4181 42.3496 40.4411L43.8963 42.3899C43.9145 42.4129 43.9219 42.4394 43.9185 42.4694C43.915 42.4993 43.9018 42.5234 43.8788 42.5417L43.4371 42.8923C43.4141 42.9105 43.3876 42.9179 43.3576 42.9145C43.3277 42.911 43.3036 42.8978 43.2853 42.8748L42.318 41.656L42.1207 41.8127L42.9512 42.8592C42.9694 42.8821 42.9768 42.9086 42.9734 42.9386C42.9699 42.9686 42.9567 42.9927 42.9337 43.0109L42.5264 43.3342C42.5034 43.3524 42.477 43.3598 42.447 43.3563C42.417 43.3529 42.3929 43.3397 42.3747 43.3167L41.5441 42.2702L41.3468 42.4269L42.3389 43.677ZM44.8178 45.1853C44.9751 45.435 45.0802 45.6511 45.1332 45.8337C45.1879 46.0185 45.1941 46.1786 45.152 46.3142C45.1098 46.4498 45.0198 46.5723 44.8819 46.6817C44.7315 46.8011 44.561 46.8564 44.3703 46.8478C44.1833 46.8396 43.9916 46.7739 43.7951 46.6507C43.6006 46.5258 43.4164 46.3537 43.2423 46.1344C43.0484 45.89 42.9145 45.6592 42.8408 45.4419C42.7671 45.2246 42.7473 45.0344 42.7812 44.8713C42.8173 44.7065 42.8959 44.5761 43.017 44.4799C43.0379 44.4633 43.0596 44.4563 43.0821 44.4589C43.1062 44.4636 43.1265 44.4764 43.1431 44.4973L43.6529 45.1396C43.6877 45.1834 43.7023 45.2297 43.6967 45.2784C43.6915 45.3405 43.7 45.3984 43.7223 45.4522C43.7466 45.5043 43.7903 45.5701 43.8533 45.6495C44.0108 45.8479 44.1198 45.9231 44.1804 45.875C44.2055 45.8551 44.2156 45.825 44.2107 45.7846C44.2096 45.7446 44.1888 45.6862 44.1483 45.6094C44.1115 45.533 44.0499 45.4254 43.9634 45.2863C43.7697 44.9736 43.6667 44.698 43.6543 44.4593C43.644 44.2189 43.7391 44.0192 43.9396 43.8601C44.0816 43.7473 44.2409 43.6907 44.4175 43.6901C44.5941 43.6896 44.7749 43.7436 44.9598 43.8521C45.1463 43.9628 45.3225 44.1226 45.4883 44.3315C45.6607 44.5487 45.7771 44.7661 45.8374 44.9838C45.8999 45.1997 45.915 45.3903 45.8827 45.5555C45.8504 45.7208 45.7862 45.8415 45.6901 45.9177C45.6692 45.9343 45.6467 45.9403 45.6226 45.9356C45.6001 45.933 45.5798 45.9202 45.5615 45.8973L45.0269 45.2236C44.9987 45.1881 44.9855 45.1458 44.9874 45.0967C44.9901 45.0571 44.9852 45.0167 44.9729 44.9754C44.9606 44.9341 44.9287 44.8811 44.8773 44.8164C44.7662 44.6764 44.6815 44.6297 44.623 44.6761C44.5916 44.7009 44.5881 44.748 44.6124 44.8172C44.6388 44.8848 44.7073 45.0075 44.8178 45.1853Z" fill="#C3A47B"/>
</svg>
