<svg  viewBox="0 0 25 33" fill="none" xmlns="http://www.w3.org/2000/svg">
<path d="M7.84413 11.8193C7.72019 12.1298 7.62307 12.4526 7.55898 12.7852C7.3646 13.7939 7.46481 14.8399 7.84609 15.79C8.22737 16.7402 8.87317 17.5527 9.70155 18.124C10.5299 18.6953 11.5042 19 12.5004 19C12.8377 19 13.1733 18.9645 13.5023 18.8955L18.6176 25.292C16.2289 28.189 12.5271 32.9656 12.5004 33C12.5004 33 6.301 25.0013 4.75038 23.4004C3.20038 21.8004 0.0999913 17.8318 0.0999913 13.7998C0.0226868 12.0978 0.290352 10.3976 0.886124 8.80859C1.33974 7.59875 1.97603 6.47355 2.76894 5.47363L7.84413 11.8193Z" fill="#102E4A"/>
<path d="M12.5 1.00001C14.1488 0.920187 15.7956 1.19658 17.335 1.81154C18.8744 2.42655 20.2732 3.36641 21.4404 4.5713C22.6076 5.77613 23.5175 7.21961 24.1133 8.80861C24.7091 10.3977 24.9777 12.0977 24.9004 13.7998C24.9004 16.7912 23.1925 19.7465 21.6787 21.7266L17.0762 15.9707C17.1028 15.9108 17.1298 15.851 17.1543 15.7901C17.4075 15.1592 17.5371 14.4827 17.5371 13.7998C17.5371 12.7714 17.2419 11.7662 16.6885 10.9111C16.135 10.0561 15.3482 9.38969 14.4277 8.99611C13.5074 8.60259 12.4946 8.49871 11.5176 8.69923C11.4454 8.71406 11.374 8.73395 11.3027 8.75197L6.28125 2.47267C6.72717 2.22244 7.1895 2.00152 7.66504 1.81154C9.20443 1.19658 10.8512 0.920187 12.5 1.00001Z" fill="#C3A47B"/>
</svg>