<svg width="106" height="106" viewBox="0 0 106 106" fill="none" xmlns="http://www.w3.org/2000/svg">
<rect width="106" height="106" rx="18" fill="#F9FAFC"/>
<path d="M22.86 28.4C22.992 28.4 23.106 28.448 23.202 28.544C23.298 28.64 23.346 28.754 23.346 28.886V31.784C23.346 31.916 23.298 32.03 23.202 32.126C23.106 32.222 22.992 32.27 22.86 32.27H18.99V40.514C18.99 40.646 18.942 40.76 18.846 40.856C18.75 40.952 18.636 41 18.504 41H14.796C14.664 41 14.55 40.952 14.454 40.856C14.358 40.76 14.31 40.646 14.31 40.514L14.31 32.27H10.44C10.308 32.27 10.194 32.222 10.098 32.126C10.002 32.03 9.954 31.916 9.954 31.784L9.954 28.886C9.954 28.754 10.002 28.64 10.098 28.544C10.194 28.448 10.308 28.4 10.44 28.4L22.86 28.4ZM40.889 40.442C40.913 40.49 40.925 40.544 40.925 40.604C40.925 40.712 40.883 40.808 40.799 40.892C40.727 40.964 40.637 41 40.529 41H36.443C36.275 41 36.119 40.958 35.975 40.874C35.843 40.79 35.747 40.682 35.687 40.55L34.103 36.986H32.591V40.514C32.591 40.646 32.543 40.76 32.447 40.856C32.351 40.952 32.237 41 32.105 41H28.217C28.085 41 27.971 40.952 27.875 40.856C27.779 40.76 27.731 40.646 27.731 40.514L27.731 28.886C27.731 28.754 27.779 28.64 27.875 28.544C27.971 28.448 28.085 28.4 28.217 28.4H35.219C36.299 28.4 37.241 28.574 38.045 28.922C38.861 29.27 39.485 29.774 39.917 30.434C40.349 31.094 40.565 31.868 40.565 32.756C40.565 34.388 39.935 35.57 38.675 36.302L40.889 40.442ZM34.841 33.656C35.105 33.656 35.309 33.572 35.453 33.404C35.597 33.224 35.669 33.002 35.669 32.738C35.669 32.474 35.597 32.246 35.453 32.054C35.321 31.85 35.117 31.748 34.841 31.748H32.591V33.656H34.841ZM53.2839 37.31H56.5419C56.6739 37.31 56.7879 37.358 56.8839 37.454C56.9799 37.55 57.0279 37.664 57.0279 37.796V40.514C57.0279 40.646 56.9799 40.76 56.8839 40.856C56.7879 40.952 56.6739 41 56.5419 41H45.1299C44.9979 41 44.8839 40.952 44.7879 40.856C44.6919 40.76 44.6439 40.646 44.6439 40.514V37.796C44.6439 37.664 44.6919 37.55 44.7879 37.454C44.8839 37.358 44.9979 37.31 45.1299 37.31H48.4239V32.09H45.1299C44.9979 32.09 44.8839 32.042 44.7879 31.946C44.6919 31.85 44.6439 31.736 44.6439 31.604V28.886C44.6439 28.754 44.6919 28.64 44.7879 28.544C44.8839 28.448 44.9979 28.4 45.1299 28.4H56.5419C56.6739 28.4 56.7879 28.448 56.8839 28.544C56.9799 28.64 57.0279 28.754 57.0279 28.886V31.604C57.0279 31.736 56.9799 31.85 56.8839 31.946C56.7879 32.042 56.6739 32.09 56.5419 32.09H53.2839V37.31ZM69.7649 28.4C70.8929 28.4 71.8769 28.592 72.7169 28.976C73.5569 29.36 74.1989 29.882 74.6429 30.542C75.0869 31.202 75.3089 31.94 75.3089 32.756C75.3089 34.1 74.8889 35.156 74.0489 35.924C73.2089 36.68 71.7809 37.058 69.7649 37.058H67.3889V40.514C67.3889 40.646 67.3409 40.76 67.2449 40.856C67.1489 40.952 67.0349 41 66.9029 41H63.0329C62.9009 41 62.7869 40.952 62.6909 40.856C62.5949 40.76 62.5469 40.646 62.5469 40.514V28.886C62.5469 28.754 62.5949 28.64 62.6909 28.544C62.7869 28.448 62.9009 28.4 63.0329 28.4H69.7649ZM69.6929 33.728C69.9809 33.728 70.2089 33.644 70.3769 33.476C70.5449 33.296 70.6289 33.062 70.6289 32.774C70.6289 32.474 70.5449 32.228 70.3769 32.036C70.2089 31.844 69.9809 31.748 69.6929 31.748H67.4069V33.728H69.6929Z" fill="#B49D7E"/>
<path d="M18.486 45.4C19.614 45.4 20.598 45.592 21.438 45.976C22.278 46.36 22.92 46.882 23.364 47.542C23.808 48.202 24.03 48.94 24.03 49.756C24.03 51.1 23.61 52.156 22.77 52.924C21.93 53.68 20.502 54.058 18.486 54.058H16.11L16.11 57.514C16.11 57.646 16.062 57.76 15.966 57.856C15.87 57.952 15.756 58 15.624 58H11.754C11.622 58 11.508 57.952 11.412 57.856C11.316 57.76 11.268 57.646 11.268 57.514L11.268 45.886C11.268 45.754 11.316 45.64 11.412 45.544C11.508 45.448 11.622 45.4 11.754 45.4H18.486ZM18.414 50.728C18.702 50.728 18.93 50.644 19.098 50.476C19.266 50.296 19.35 50.062 19.35 49.774C19.35 49.474 19.266 49.228 19.098 49.036C18.93 48.844 18.702 48.748 18.414 48.748H16.128V50.728H18.414ZM31.151 57.388C30.995 57.796 30.725 58 30.341 58H26.939C26.831 58 26.735 57.964 26.651 57.892C26.579 57.808 26.543 57.712 26.543 57.604L26.561 57.496L30.485 45.994C30.533 45.838 30.623 45.7 30.755 45.58C30.887 45.46 31.067 45.4 31.295 45.4L36.299 45.4C36.527 45.4 36.707 45.46 36.839 45.58C36.971 45.7 37.061 45.838 37.109 45.994L41.033 57.496L41.051 57.604C41.051 57.712 41.009 57.808 40.925 57.892C40.853 57.964 40.763 58 40.655 58H37.253C36.869 58 36.599 57.796 36.443 57.388L35.993 56.128H31.601L31.151 57.388ZM33.797 48.874L32.519 52.618H35.075L33.797 48.874ZM57.4239 45.4C57.5319 45.4 57.6219 45.442 57.6939 45.526C57.7779 45.598 57.8199 45.682 57.8199 45.778C57.8199 45.85 57.8019 45.922 57.7659 45.994L53.2299 53.5V57.514C53.2299 57.646 53.1819 57.76 53.0859 57.856C52.9899 57.952 52.8759 58 52.7439 58H48.9099C48.7779 58 48.6639 57.952 48.5679 57.856C48.4719 57.76 48.4239 57.646 48.4239 57.514V53.5L43.9059 45.994C43.8699 45.922 43.8519 45.856 43.8519 45.796C43.8519 45.688 43.8879 45.598 43.9599 45.526C44.0439 45.442 44.1399 45.4 44.2479 45.4H48.0459C48.3819 45.4 48.6279 45.538 48.7839 45.814L50.8179 49.378L52.9059 45.85C53.0859 45.55 53.3379 45.4 53.6619 45.4H57.4239ZM22.446 74.31C22.578 74.31 22.692 74.358 22.788 74.454C22.884 74.55 22.932 74.664 22.932 74.796V77.514C22.932 77.646 22.884 77.76 22.788 77.856C22.692 77.952 22.578 78 22.446 78H10.89C10.758 78 10.644 77.952 10.548 77.856C10.452 77.76 10.404 77.646 10.404 77.514V74.922C10.404 74.766 10.434 74.634 10.494 74.526C10.554 74.418 10.614 74.34 10.674 74.292L16.362 69.09H11.268C11.136 69.09 11.022 69.042 10.926 68.946C10.83 68.85 10.782 68.736 10.782 68.604V65.886C10.782 65.754 10.83 65.64 10.926 65.544C11.022 65.448 11.136 65.4 11.268 65.4H22.068C22.2 65.4 22.314 65.448 22.41 65.544C22.506 65.64 22.554 65.754 22.554 65.886V68.46C22.554 68.712 22.476 68.91 22.32 69.054L16.704 74.31H22.446ZM36.191 74.31H39.449C39.581 74.31 39.695 74.358 39.791 74.454C39.887 74.55 39.935 74.664 39.935 74.796V77.514C39.935 77.646 39.887 77.76 39.791 77.856C39.695 77.952 39.581 78 39.449 78H28.037C27.905 78 27.791 77.952 27.695 77.856C27.599 77.76 27.551 77.646 27.551 77.514V74.796C27.551 74.664 27.599 74.55 27.695 74.454C27.791 74.358 27.905 74.31 28.037 74.31H31.331V69.09H28.037C27.905 69.09 27.791 69.042 27.695 68.946C27.599 68.85 27.551 68.736 27.551 68.604V65.886C27.551 65.754 27.599 65.64 27.695 65.544C27.791 65.448 27.905 65.4 28.037 65.4H39.449C39.581 65.4 39.695 65.448 39.791 65.544C39.887 65.64 39.935 65.754 39.935 65.886V68.604C39.935 68.736 39.887 68.85 39.791 68.946C39.695 69.042 39.581 69.09 39.449 69.09H36.191V74.31ZM56.6679 74.49C56.7999 74.49 56.9139 74.538 57.0099 74.634C57.1059 74.73 57.1539 74.844 57.1539 74.976V77.514C57.1539 77.646 57.1059 77.76 57.0099 77.856C56.9139 77.952 56.7999 78 56.6679 78H45.2919C45.1599 78 45.0459 77.952 44.9499 77.856C44.8539 77.76 44.8059 77.646 44.8059 77.514V65.886C44.8059 65.754 44.8539 65.64 44.9499 65.544C45.0459 65.448 45.1599 65.4 45.2919 65.4H56.4879C56.6199 65.4 56.7339 65.448 56.8299 65.544C56.9259 65.64 56.9739 65.754 56.9739 65.886V68.424C56.9739 68.556 56.9259 68.67 56.8299 68.766C56.7339 68.862 56.6199 68.91 56.4879 68.91H49.4859V70.044H55.4979C55.6299 70.044 55.7439 70.092 55.8399 70.188C55.9359 70.284 55.9839 70.398 55.9839 70.53V72.87C55.9839 73.002 55.9359 73.116 55.8399 73.212C55.7439 73.308 55.6299 73.356 55.4979 73.356H49.4859V74.49H56.6679ZM68.9189 69.972C70.2389 70.116 71.2949 70.35 72.0869 70.674C72.8909 70.998 73.4729 71.424 73.8329 71.952C74.1929 72.48 74.3729 73.14 74.3729 73.932C74.3729 74.796 74.0909 75.552 73.5269 76.2C72.9749 76.836 72.2069 77.328 71.2229 77.676C70.2389 78.012 69.1169 78.18 67.8569 78.18C66.4529 78.18 65.2649 78.006 64.2929 77.658C63.3209 77.31 62.5949 76.848 62.1149 76.272C61.6349 75.684 61.3949 75.042 61.3949 74.346C61.3949 74.226 61.4309 74.13 61.5029 74.058C61.5869 73.986 61.6889 73.95 61.8089 73.95H65.4989C65.7509 73.95 65.9549 74.028 66.1109 74.184C66.3149 74.376 66.5429 74.508 66.7949 74.58C67.0469 74.64 67.4009 74.67 67.8569 74.67C68.9969 74.67 69.5669 74.496 69.5669 74.148C69.5669 74.004 69.4889 73.884 69.3329 73.788C69.1889 73.68 68.9249 73.59 68.5409 73.518C68.1689 73.434 67.6169 73.35 66.8849 73.266C65.2409 73.074 63.9809 72.666 63.1049 72.042C62.2289 71.406 61.7909 70.512 61.7909 69.36C61.7909 68.544 62.0369 67.824 62.5289 67.2C63.0209 66.576 63.7169 66.09 64.6169 65.742C65.5289 65.394 66.5849 65.22 67.7849 65.22C69.0329 65.22 70.1249 65.418 71.0609 65.814C71.9969 66.198 72.7109 66.678 73.2029 67.254C73.6949 67.83 73.9409 68.394 73.9409 68.946C73.9409 69.066 73.8989 69.162 73.8149 69.234C73.7429 69.306 73.6409 69.342 73.5089 69.342H69.6389C69.4349 69.342 69.2489 69.27 69.0809 69.126C68.9489 69.006 68.7929 68.91 68.6129 68.838C68.4329 68.766 68.1569 68.73 67.7849 68.73C66.9809 68.73 66.5789 68.898 66.5789 69.234C66.5789 69.414 66.7349 69.558 67.0469 69.666C67.3589 69.762 67.9829 69.864 68.9189 69.972Z" fill="#183153"/>
<path d="M81.7481 49.5238C81.6082 49.883 81.5001 50.2573 81.4278 50.642C81.2086 51.8082 81.321 53.0171 81.751 54.1156C82.181 55.2141 82.9095 56.1532 83.8438 56.8138C84.778 57.4744 85.8764 57.8265 87 57.8265C87.3805 57.8265 87.7588 57.7852 88.1299 57.7054L93.8994 65.1029C91.206 68.4516 87.0321 73.9707 87 74.0131C86.9599 73.96 80.0035 64.7599 78.2598 62.9144C76.5117 61.0646 73.0147 56.4765 73.0147 51.8148C72.9275 49.8471 73.2296 47.8815 73.9014 46.0443C74.413 44.6454 75.1311 43.344 76.0254 42.1879L81.7481 49.5238Z" fill="#183153"/>
<path d="M87.0001 37.0155C88.8597 36.9232 90.717 37.243 92.4532 37.954C94.1894 38.6651 95.7666 39.7514 97.0831 41.1444C98.3995 42.5375 99.4258 44.2066 100.098 46.0439C100.77 47.8811 101.072 49.8465 100.984 51.8144C100.984 55.273 99.0589 58.6901 97.3516 60.9794L92.1602 54.3251C92.1904 54.2556 92.2214 54.186 92.2491 54.1151C92.5345 53.3858 92.6817 52.6038 92.6817 51.8144C92.6816 50.6254 92.3479 49.4631 91.7237 48.4745C91.0994 47.4858 90.212 46.7147 89.1739 46.2597C88.1359 45.8048 86.9936 45.6859 85.8917 45.9179C85.8098 45.9351 85.7284 45.9545 85.6475 45.9755L79.9864 38.7177C80.4892 38.4284 81.0107 38.1736 81.5469 37.954C83.2831 37.243 85.1404 36.9232 87.0001 37.0155Z" fill="#B49D7E"/>
</svg>
