<svg viewBox="0 0 23 23" fill="none" xmlns="http://www.w3.org/2000/svg">
<path d="M23 11.5C23 17.8513 17.8513 23 11.5 23C5.14873 23 0 17.8513 0 11.5C0 5.14873 5.14873 0 11.5 0C17.8513 0 23 5.14873 23 11.5Z" fill="currentColor"/>
<path d="M11.5 7.4375C11.5 7.1174 11.563 6.80044 11.6855 6.50471C11.808 6.20898 11.9876 5.94027 12.2139 5.71393C12.4403 5.48758 12.709 5.30804 13.0047 5.18554C13.3004 5.06305 13.6174 5 13.9375 5C14.2576 5 14.5746 5.06305 14.8703 5.18554C15.166 5.30804 15.4347 5.48758 15.6611 5.71393C15.8874 5.94027 16.067 6.20898 16.1895 6.50471C16.312 6.80044 16.375 7.1174 16.375 7.4375C16.375 8.08397 16.1182 8.70395 15.6611 9.16107C15.204 9.61819 14.584 9.875 13.9375 9.875C13.291 9.875 12.671 9.61819 12.2139 9.16107C11.7568 8.70395 11.5 8.08397 11.5 7.4375ZM5 15.5625C5 14.916 5.25681 14.296 5.71393 13.8389C6.17105 13.3818 6.79103 13.125 7.4375 13.125H10.6875C11.334 13.125 11.954 13.3818 12.4111 13.8389C12.8682 14.296 13.125 14.916 13.125 15.5625V18H5V15.5625Z" fill="white"/>
<path d="M12.2093 10.6899C12.0417 11.3362 11.6792 11.9153 11.1709 12.3482C11.9405 12.464 12.643 12.8521 13.1507 13.4419C13.6584 14.0318 13.9376 14.7842 13.9375 15.5625H18V13.125C18 12.4785 17.7432 11.8585 17.2861 11.4014C16.829 10.9443 16.209 10.6875 15.5625 10.6875H12.3125C12.2784 10.6875 12.244 10.6883 12.2093 10.6899ZM9.0625 7.4375C8.41603 7.4375 7.79605 7.69431 7.33893 8.15143C6.88181 8.60855 6.625 9.22853 6.625 9.875C6.625 10.5215 6.88181 11.1415 7.33893 11.5986C7.79605 12.0557 8.41603 12.3125 9.0625 12.3125C9.70897 12.3125 10.329 12.0557 10.7861 11.5986C11.2432 11.1415 11.5 10.5215 11.5 9.875C11.5 9.22853 11.2432 8.60855 10.7861 8.15143C10.329 7.69431 9.70897 7.4375 9.0625 7.4375Z" fill="white"/>
</svg>
