<svg viewBox="0 0 143 119" fill="none" xmlns="http://www.w3.org/2000/svg">
<path d="M2.2405 74.757C2.2405 75.175 2.6365 75.428 3.3955 75.428C3.9785 75.428 4.3635 75.263 4.3635 74.625C4.3635 74.504 4.3635 74.35 4.3525 74.152C4.0555 74.108 3.7585 74.075 3.4505 74.075C2.6695 74.075 2.2405 74.383 2.2405 74.757ZM5.6835 67.101C5.6505 67.321 5.6285 67.596 5.6175 67.882C5.6065 67.992 5.6065 68.157 5.6065 68.333C6.5085 68.289 7.4215 68.201 8.3895 68.036L8.3785 69.301C7.6525 69.389 6.6515 69.488 5.5845 69.543C5.5845 69.928 5.5845 70.335 5.5845 70.676C6.6955 70.621 7.6305 70.533 8.5215 70.412L8.5105 71.71C7.5205 71.82 6.6625 71.897 5.6065 71.93C5.6285 72.348 5.6505 72.799 5.6835 73.239C7.0695 73.635 8.1255 74.372 8.7635 74.9L7.9715 76.132C7.3775 75.582 6.6295 74.999 5.7495 74.603C5.7605 74.757 5.7605 74.889 5.7605 75.01C5.7605 75.945 5.0455 76.671 3.5935 76.671C1.8335 76.671 0.909501 76 0.909501 74.834C0.909501 73.723 1.9325 72.942 3.6265 72.942C3.8575 72.942 4.0885 72.953 4.3085 72.975C4.2865 72.634 4.2755 72.282 4.2645 71.952C4.0775 71.952 3.8905 71.952 3.6925 71.952C3.0545 71.952 1.8005 71.897 1.0745 71.809L1.0635 70.511C1.7785 70.643 3.1315 70.72 3.7145 70.72C3.8905 70.72 4.0665 70.72 4.2425 70.72C4.2425 70.357 4.2425 69.961 4.2535 69.587C4.1105 69.587 3.9785 69.587 3.8465 69.587C3.1535 69.587 1.8775 69.488 1.1515 69.389L1.1185 68.135C1.9105 68.267 3.1645 68.377 3.8355 68.377C3.9785 68.377 4.1215 68.377 4.2645 68.377C4.2645 68.168 4.2645 67.992 4.2645 67.86C4.2645 67.651 4.2425 67.31 4.1985 67.101H5.6835ZM17.3435 73.437C17.2555 73.756 17.1895 74.108 17.1895 74.35C17.1895 74.834 17.5195 75.197 18.6965 75.197C19.4335 75.197 20.1925 75.12 20.9845 74.977L20.9295 76.374C20.3025 76.462 19.5655 76.539 18.6855 76.539C16.8375 76.539 15.8365 75.901 15.8365 74.79C15.8365 74.273 15.9355 73.745 16.0235 73.316L17.3435 73.437ZM16.1005 67.343C16.0125 67.651 15.9025 68.146 15.8585 68.388C15.8365 68.509 15.8035 68.652 15.7705 68.795C16.3865 68.707 17.0135 68.586 17.6185 68.443V69.818C16.9585 69.972 16.2105 70.093 15.4735 70.181C15.3745 70.654 15.2645 71.149 15.1435 71.6C14.7365 73.14 14.0105 75.384 13.3945 76.693L11.8655 76.176C12.5255 75.065 13.3615 72.766 13.7685 71.226C13.8455 70.929 13.9225 70.61 13.9995 70.302C13.7465 70.313 13.5045 70.324 13.2735 70.324C12.7345 70.324 12.3275 70.302 11.9425 70.28L11.9095 68.905C12.4705 68.971 12.8335 68.993 13.2955 68.993C13.6145 68.993 13.9445 68.982 14.2855 68.96C14.3295 68.718 14.3625 68.509 14.3845 68.333C14.4285 67.926 14.4505 67.475 14.4175 67.211L16.1005 67.343ZM16.7495 70.676C17.3655 70.61 18.1465 70.566 18.8615 70.566C19.4885 70.566 20.1485 70.599 20.7975 70.665L20.7645 71.985C20.2145 71.919 19.5435 71.842 18.8725 71.842C18.1135 71.842 17.4425 71.875 16.7495 71.963V70.676ZM19.6205 67.662C19.8955 68.069 20.2915 68.762 20.4895 69.169L19.6095 69.554C19.3895 69.103 19.0485 68.443 18.7515 68.025L19.6205 67.662ZM20.9185 67.167C21.2155 67.574 21.6225 68.278 21.8095 68.663L20.9405 69.037C20.7095 68.575 20.3575 67.937 20.0495 67.519L20.9185 67.167ZM33.4915 68.608V69.895H24.2075V68.608H28.1125V66.694H29.4765V68.608H33.4915ZM27.9035 74.526L26.5615 74.878C26.4845 73.734 26.0995 71.974 25.6155 70.632L26.8695 70.302C27.3865 71.655 27.7935 73.36 27.9035 74.526ZM30.7195 75.219H33.8105V76.528H23.8555V75.219H29.3335C29.8285 73.888 30.3565 71.842 30.5875 70.258L32.0945 70.533C31.7095 72.15 31.1925 73.932 30.7195 75.219ZM43.2595 73.888V73.272H38.4965V73.888H43.2595ZM38.4965 75.516H43.2595V74.834H38.4965V75.516ZM45.8775 70.192H44.3485C44.7995 70.819 45.4155 71.336 46.1635 71.633C45.8885 71.864 45.5255 72.315 45.3385 72.623C44.5025 72.205 43.8315 71.501 43.3475 70.654C43.0175 71.204 42.5225 71.743 41.7525 72.183H44.6015V76.913H43.2595V76.605H38.4965V76.957H37.2205V72.304C37.0335 72.436 36.8245 72.568 36.6155 72.689C36.4395 72.425 36.0435 72.018 35.7465 71.798C36.6815 71.347 37.2205 70.775 37.5175 70.192H35.9775V69.158H37.8475C37.8805 68.938 37.9025 68.729 37.9025 68.531H36.3405V67.541H37.9025V66.683H39.1455V67.541H40.4655V68.531H39.1455C39.1455 68.74 39.1235 68.938 39.1015 69.158H40.5975V70.192H39.1455C39.6295 70.555 40.1905 70.962 40.5095 71.215L39.6735 72.095C39.3985 71.82 38.9035 71.413 38.4415 71.05C38.1775 71.446 37.8365 71.831 37.3745 72.183H41.1915C40.9935 71.93 40.7295 71.644 40.5095 71.479C41.3895 71.149 41.9065 70.687 42.1925 70.192H40.9385V69.158H42.5555C42.5885 68.949 42.5995 68.751 42.5995 68.564V68.531H41.1035V67.541H42.5995V66.683H43.8535V67.541H45.5035V68.531H43.8535V68.586C43.8535 68.773 43.8425 68.96 43.8205 69.158H45.8775V70.192ZM51.9715 67.024V68.014H48.4735V67.024H51.9715ZM50.7615 74.086H49.5075V75.351H50.7615V74.086ZM51.9055 73.052V76.374H49.5075V76.803H48.3745V73.052H51.9055ZM48.4075 72.513V71.534H51.9385V72.513H48.4075ZM48.4075 71.028V70.027H51.9385V71.028H48.4075ZM47.8795 69.532V68.498H52.3785V69.532H47.8795ZM54.7655 75.626H56.3385C56.8335 75.626 56.9105 75.373 56.9875 73.998C57.2735 74.207 57.8455 74.427 58.1975 74.504C58.0325 76.33 57.6805 76.858 56.4375 76.858H54.6225C53.2585 76.858 52.8295 76.495 52.8295 75.087V70.775H56.3055V68.476H52.8075V67.233H57.6145V72.557H56.3055V72.018H54.1605V75.087C54.1605 75.549 54.2485 75.626 54.7655 75.626ZM61.3105 69.411H63.6315C63.3235 68.96 62.8395 68.344 62.3775 67.904C62.1025 68.377 61.7505 68.894 61.3105 69.411ZM64.1705 74.834L64.1925 75.054C64.7425 74.735 65.4685 74.273 66.1835 73.8L66.5795 74.79C65.9305 75.285 65.2265 75.791 64.5995 76.22L64.2365 75.593L64.2695 75.912C62.9055 76.198 61.4535 76.506 60.3425 76.715L60.1005 75.527C60.5625 75.461 61.1125 75.373 61.7175 75.274V72.403H60.2215V71.303H61.7175V70.5H60.7495V70.005C60.6835 70.071 60.6065 70.137 60.5405 70.203C60.3755 69.95 60.0125 69.521 59.7595 69.356C60.6835 68.575 61.3215 67.541 61.6625 66.694H62.7405C63.3895 67.233 64.1925 68.014 64.5775 68.586L63.8845 69.411H63.9835V70.5H62.8505V71.303H64.2145V72.403H62.8505V75.065L64.1705 74.834ZM68.9335 73.613L68.4165 73.272C68.8785 74.086 69.5385 74.856 70.4295 75.318C70.1655 75.549 69.7805 76.055 69.5935 76.396C68.8125 75.89 68.2185 75.098 67.7895 74.273V75.714C67.7895 76.264 67.7125 76.572 67.3715 76.748C67.0305 76.935 66.6015 76.957 65.9855 76.957C65.9525 76.627 65.8205 76.165 65.6775 75.824C65.9855 75.846 66.3155 75.835 66.4255 75.835C66.5465 75.835 66.5795 75.802 66.5795 75.692V71.38H64.3135V70.269H68.1415V69.708H65.0835V68.718H68.1415V68.124H64.8415V67.046H69.3515V70.269H70.1655V71.38H67.7895V71.743C67.8995 72.117 68.0425 72.524 68.2405 72.92C68.5815 72.546 68.9885 72.007 69.2305 71.6L70.2535 72.227C69.8135 72.733 69.3185 73.25 68.9335 73.613ZM60.3315 73.03L61.1675 72.821C61.3435 73.426 61.4975 74.207 61.5525 74.713L60.6725 74.955C60.6505 74.427 60.4965 73.635 60.3315 73.03ZM63.7635 74.735L62.9715 74.515C63.1145 74.031 63.2905 73.25 63.3565 72.733L64.3025 72.964C64.1045 73.58 63.9285 74.284 63.7635 74.735ZM64.3685 72.315L65.2265 71.765C65.6665 72.15 66.1505 72.733 66.3595 73.151L65.4465 73.756C65.2595 73.349 64.7865 72.744 64.3685 72.315ZM76.7215 67.387C76.6555 67.673 76.5785 68.025 76.5235 68.3C76.4575 68.63 76.3695 69.037 76.2925 69.433C76.6665 69.411 76.9855 69.389 77.2165 69.389C78.3825 69.389 79.2075 69.906 79.2075 71.49C79.2075 72.788 79.0535 74.57 78.5805 75.527C78.2175 76.297 77.6125 76.539 76.7765 76.539C76.3585 76.539 75.8305 76.462 75.4565 76.385L75.2255 74.933C75.6435 75.054 76.2815 75.164 76.5675 75.164C76.9415 75.164 77.2165 75.054 77.3925 74.691C77.6895 74.064 77.8435 72.733 77.8435 71.644C77.8435 70.764 77.4585 70.643 76.7765 70.643C76.6005 70.643 76.3255 70.665 76.0065 70.687C75.5885 72.359 74.7745 74.966 73.7625 76.583L72.3325 76.011C73.3995 74.57 74.1585 72.348 74.5655 70.841C74.1695 70.885 73.8175 70.929 73.6195 70.951C73.3005 71.006 72.7285 71.083 72.3875 71.138L72.2555 69.642C72.6625 69.675 73.0255 69.653 73.4325 69.642C73.7735 69.631 74.2905 69.598 74.8515 69.543C75.0055 68.718 75.1045 67.915 75.0825 67.222L76.7215 67.387ZM81.6165 66.474C81.9025 66.892 82.3095 67.585 82.4965 67.97L81.6275 68.344C81.3965 67.893 81.0445 67.244 80.7365 66.826L81.6165 66.474ZM80.3075 66.969C80.5825 67.376 80.9785 68.069 81.1875 68.476L80.6485 68.707C81.3085 69.73 82.1335 71.567 82.4415 72.546L81.0445 73.184C80.7585 71.963 79.9775 70.027 79.1965 69.059L80.1865 68.63C79.9665 68.212 79.6915 67.684 79.4385 67.332L80.3075 66.969ZM89.2725 67.145C89.2065 67.365 89.1625 67.563 89.1185 67.728C89.0855 67.915 89.0415 68.113 89.0085 68.333C90.3505 68.278 91.5385 68.135 92.7485 67.849L92.7595 69.125C91.6815 69.323 90.2075 69.455 88.8545 69.51C88.8215 69.84 88.7885 70.181 88.7775 70.511C89.3055 70.39 89.8775 70.313 90.4165 70.313C90.4825 70.313 90.5485 70.313 90.6145 70.313C90.6585 70.093 90.7025 69.818 90.7135 69.653L92.0555 69.972C92.0115 70.093 91.9235 70.324 91.8575 70.533C93.1335 70.951 93.9805 71.952 93.9805 73.228C93.9805 74.79 93.0675 76.297 90.3615 76.704L89.6355 75.549C91.7585 75.318 92.6165 74.24 92.6165 73.162C92.6165 72.502 92.2315 71.919 91.4725 71.622C90.8785 73.118 89.9985 74.273 89.1625 74.966C89.2395 75.241 89.3275 75.516 89.4155 75.78L88.1505 76.165C88.1065 76.022 88.0515 75.868 88.0075 75.714C87.4685 75.978 86.8855 76.154 86.3025 76.154C85.4995 76.154 84.8175 75.67 84.8175 74.559C84.8175 73.14 85.9835 71.666 87.5235 70.94C87.5455 70.467 87.5785 70.005 87.6225 69.554C87.5015 69.554 87.3915 69.554 87.2705 69.554C86.6985 69.554 85.8405 69.51 85.3235 69.488L85.2905 68.212C85.6755 68.278 86.6435 68.366 87.3145 68.366C87.4685 68.366 87.6115 68.366 87.7545 68.366C87.7765 68.157 87.7985 67.959 87.8205 67.772C87.8315 67.563 87.8535 67.299 87.8425 67.112L89.2725 67.145ZM86.1155 74.273C86.1155 74.625 86.2695 74.812 86.6215 74.812C86.9295 74.812 87.3255 74.68 87.7215 74.449C87.6005 73.767 87.5125 73.008 87.4905 72.249C86.6655 72.81 86.1155 73.646 86.1155 74.273ZM88.7335 71.71C88.7335 72.381 88.7775 72.986 88.8655 73.536C89.3825 72.997 89.8775 72.326 90.2515 71.435C89.6685 71.446 89.1625 71.545 88.7335 71.677V71.71ZM99.8875 67.167C99.7335 67.706 99.5135 68.839 99.4475 69.455C99.9755 68.597 100.933 67.673 102.176 67.673C103.705 67.673 104.893 69.169 104.893 71.589C104.893 74.702 102.99 76.187 100.075 76.715L99.2385 75.439C101.681 75.065 103.408 74.262 103.408 71.6C103.408 69.906 102.836 68.96 101.912 68.96C100.614 68.96 99.4805 70.907 99.4255 72.359C99.4035 72.656 99.4145 73.008 99.4805 73.525L98.1275 73.613C98.0615 73.184 97.9845 72.513 97.9845 71.776C97.9845 70.753 98.1385 69.389 98.2925 68.256C98.3475 67.838 98.3805 67.398 98.3805 67.101L99.8875 67.167ZM111.141 74.757C111.141 75.175 111.537 75.428 112.296 75.428C112.879 75.428 113.264 75.263 113.264 74.625C113.264 74.504 113.264 74.35 113.253 74.152C112.956 74.108 112.659 74.075 112.351 74.075C111.57 74.075 111.141 74.383 111.141 74.757ZM114.584 67.101C114.551 67.321 114.529 67.596 114.518 67.882C114.507 67.992 114.507 68.157 114.507 68.333C115.409 68.289 116.322 68.201 117.29 68.036L117.279 69.301C116.553 69.389 115.552 69.488 114.485 69.543C114.485 69.928 114.485 70.335 114.485 70.676C115.596 70.621 116.531 70.533 117.422 70.412L117.411 71.71C116.421 71.82 115.563 71.897 114.507 71.93C114.529 72.348 114.551 72.799 114.584 73.239C115.97 73.635 117.026 74.372 117.664 74.9L116.872 76.132C116.278 75.582 115.53 74.999 114.65 74.603C114.661 74.757 114.661 74.889 114.661 75.01C114.661 75.945 113.946 76.671 112.494 76.671C110.734 76.671 109.81 76 109.81 74.834C109.81 73.723 110.833 72.942 112.527 72.942C112.758 72.942 112.989 72.953 113.209 72.975C113.187 72.634 113.176 72.282 113.165 71.952C112.978 71.952 112.791 71.952 112.593 71.952C111.955 71.952 110.701 71.897 109.975 71.809L109.964 70.511C110.679 70.643 112.032 70.72 112.615 70.72C112.791 70.72 112.967 70.72 113.143 70.72C113.143 70.357 113.143 69.961 113.154 69.587C113.011 69.587 112.879 69.587 112.747 69.587C112.054 69.587 110.778 69.488 110.052 69.389L110.019 68.135C110.811 68.267 112.065 68.377 112.736 68.377C112.879 68.377 113.022 68.377 113.165 68.377C113.165 68.168 113.165 67.992 113.165 67.86C113.165 67.651 113.143 67.31 113.099 67.101H114.584ZM128.198 67.365C128.176 67.541 128.143 68.025 128.132 68.322C128.121 68.751 128.121 69.147 128.11 69.51C128.407 69.488 128.682 69.466 128.935 69.455C129.243 69.433 129.672 69.411 129.991 69.378V70.731C129.804 70.72 129.221 70.731 128.935 70.742C128.693 70.753 128.407 70.764 128.088 70.786C128.055 71.622 128.011 72.524 127.923 72.986C127.802 73.569 127.527 73.712 126.966 73.712C126.57 73.712 125.69 73.602 125.305 73.547L125.338 72.326C125.679 72.403 126.13 72.469 126.35 72.469C126.57 72.469 126.669 72.425 126.691 72.216C126.735 71.919 126.768 71.413 126.779 70.885C125.8 70.962 124.722 71.061 123.787 71.16C123.776 72.172 123.765 73.184 123.787 73.657C123.809 74.735 123.908 74.977 125.558 74.977C126.636 74.977 128.022 74.845 128.847 74.702L128.792 76.198C128.055 76.286 126.702 76.374 125.657 76.374C122.808 76.374 122.467 75.78 122.412 73.877C122.401 73.404 122.401 72.337 122.401 71.314C122.104 71.347 121.851 71.369 121.664 71.391C121.312 71.435 120.63 71.545 120.344 71.589L120.19 70.181C120.509 70.181 121.015 70.159 121.576 70.104C121.774 70.082 122.06 70.06 122.412 70.027C122.412 69.51 122.412 69.103 122.412 68.916C122.412 68.465 122.379 68.091 122.324 67.695H123.875C123.82 68.069 123.809 68.377 123.809 68.839C123.809 69.092 123.798 69.466 123.798 69.895C124.733 69.807 125.8 69.708 126.801 69.62V68.377C126.801 68.102 126.757 67.585 126.724 67.365H128.198ZM138.23 67.827C138.12 67.981 137.999 68.168 137.878 68.344C137.339 69.136 136.569 70.544 136.019 71.512C136.426 71.281 136.866 71.182 137.284 71.182C138.109 71.182 138.604 71.699 138.648 72.612C138.67 73.107 138.637 73.987 138.692 74.449C138.736 74.878 139.044 75.043 139.407 75.043C140.364 75.043 140.947 73.811 141.266 72.447L142.454 73.415C141.882 75.296 140.859 76.55 139.176 76.55C137.955 76.55 137.383 75.824 137.339 75.021C137.295 74.438 137.306 73.536 137.273 73.085C137.24 72.7 137.02 72.469 136.624 72.469C135.876 72.469 135.26 73.239 134.864 74.13C134.578 74.768 134.193 76 134.028 76.583L132.477 76.055C133.291 73.855 135.546 69.367 136.129 68.322C136.272 68.025 136.481 67.662 136.668 67.2L138.23 67.827ZM12.3254 84.839H10.6644C10.8514 85.213 10.9944 85.719 11.0384 86.049L10.4884 86.203H12.6444L11.9184 86.049C12.0614 85.719 12.2374 85.213 12.3254 84.839ZM12.1824 89.228V89.316C12.5784 89.591 13.4914 90.317 13.7444 90.515L12.9854 91.45C12.8094 91.23 12.5014 90.9 12.1824 90.592V92.935H10.9174V90.724C10.4884 91.34 9.99336 91.89 9.52036 92.275C9.32236 91.989 8.94836 91.56 8.67336 91.351C9.38836 90.878 10.1474 90.053 10.6534 89.228H8.98136V88.128H10.9174V87.281H8.94836V86.203H9.96036C9.91636 85.84 9.78436 85.367 9.63036 84.993L10.3014 84.839H9.06936V83.772H10.9174V82.771H12.1824V83.772H14.0084V84.839H12.8754L13.5134 84.96C13.3154 85.433 13.1394 85.873 12.9854 86.203H14.0964V87.281H12.1824V88.128H13.9974V89.228H12.1824ZM19.0904 86.302V87.512H18.0454V92.891H16.7804V87.512H15.6584C15.6474 89.151 15.4164 91.472 13.9644 92.979C13.7994 92.693 13.3264 92.242 13.0294 92.088C14.2944 90.746 14.4264 88.876 14.4264 87.358V83.552L15.1854 83.761C16.2304 83.508 17.3194 83.156 17.9904 82.793L19.0354 83.75C18.0674 84.179 16.8134 84.52 15.6584 84.762V86.302H19.0904ZM24.6454 83.277C24.5794 83.739 24.5244 84.3 24.5024 84.74C24.4584 85.928 24.3704 88.392 24.3704 89.756C24.3704 90.867 25.0304 91.23 25.8884 91.23C27.7034 91.23 28.8584 90.185 29.6504 88.986L30.6514 90.196C29.9474 91.252 28.3854 92.726 25.8774 92.726C24.0734 92.726 22.9074 91.934 22.9074 90.053C22.9074 88.579 23.0174 85.686 23.0174 84.74C23.0174 84.223 22.9734 83.695 22.8744 83.255L24.6454 83.277ZM40.7384 84.069C40.3974 84.333 40.0344 84.619 39.7814 84.828C39.0664 85.4 37.6144 86.522 36.8774 87.149C36.2944 87.655 36.3054 87.776 36.8994 88.293C37.7244 88.986 39.8144 90.636 40.9364 91.725L39.6494 92.902C39.3414 92.561 39.0224 92.209 38.6924 91.879C38.0214 91.186 36.4044 89.811 35.4034 88.953C34.3034 88.018 34.3914 87.435 35.4914 86.511C36.3604 85.807 37.8674 84.586 38.6044 83.871C38.9234 83.552 39.2754 83.2 39.4514 82.936L40.7384 84.069ZM47.5364 82.727L48.8124 83.123C48.5264 83.893 48.1634 84.674 47.7564 85.411V92.946H46.4364V87.446C46.2054 87.721 45.9744 87.996 45.7544 88.238C45.6334 87.919 45.2594 87.171 45.0284 86.841C46.0294 85.851 46.9864 84.289 47.5364 82.727ZM55.4234 85.719H52.2994V86.874H55.1484V88.062H52.2994V89.305H55.2914V90.515H52.2994V92.957H50.9574V85.719H50.5394C50.0994 86.533 49.5934 87.281 49.0984 87.853C48.8894 87.611 48.3724 87.149 48.0974 86.94C49.0654 85.95 49.9344 84.366 50.4294 82.793L51.6944 83.112C51.5404 83.574 51.3644 84.025 51.1554 84.476H55.4234V85.719ZM65.4994 86.192L66.8084 86.511C66.3574 87.941 65.7084 89.217 64.9164 90.284C65.2354 91.076 65.5874 91.538 65.9394 91.538C66.2034 91.538 66.3354 90.988 66.3904 89.613C66.6874 89.921 67.1494 90.207 67.5014 90.35C67.2924 92.385 66.8524 92.869 65.8294 92.869C65.0594 92.869 64.4544 92.319 63.9704 91.417C63.4094 92 62.7934 92.495 62.1114 92.913C61.9134 92.627 61.4404 92.088 61.1654 91.835C62.0124 91.373 62.7714 90.768 63.4094 90.053C63.0354 88.81 62.7934 87.27 62.6504 85.62H59.4604V86.797H62.1774C62.1774 86.797 62.1664 87.138 62.1664 87.292C62.1334 89.602 62.0674 90.581 61.8144 90.9C61.6054 91.186 61.3854 91.285 61.0554 91.34C60.7694 91.384 60.2964 91.384 59.7904 91.373C59.7684 90.988 59.6254 90.482 59.4274 90.152C59.8234 90.185 60.1974 90.196 60.3734 90.196C60.5274 90.196 60.6154 90.174 60.7034 90.064C60.8134 89.91 60.8574 89.382 60.8904 87.996H59.4604C59.4164 89.602 59.1854 91.747 58.2834 93.089C58.0524 92.836 57.4694 92.352 57.1724 92.198C58.0084 90.878 58.0854 88.964 58.0854 87.534V84.322H62.5734C62.5514 83.783 62.5294 83.244 62.5294 82.694H63.9044C63.8934 83.244 63.9044 83.783 63.9264 84.322H65.6094C65.2024 83.992 64.6524 83.64 64.2014 83.365L64.9934 82.584C65.5984 82.892 66.4014 83.398 66.7864 83.761L66.2584 84.322H67.4024V85.62H64.0034C64.1024 86.72 64.2564 87.754 64.4434 88.634C64.8724 87.897 65.2354 87.083 65.4994 86.192ZM73.0454 83.277C72.9794 83.739 72.9244 84.3 72.9024 84.74C72.8584 85.928 72.7704 88.392 72.7704 89.756C72.7704 90.867 73.4304 91.23 74.2884 91.23C76.1034 91.23 77.2584 90.185 78.0504 88.986L79.0514 90.196C78.3474 91.252 76.7854 92.726 74.2774 92.726C72.4734 92.726 71.3074 91.934 71.3074 90.053C71.3074 88.579 71.4174 85.686 71.4174 84.74C71.4174 84.223 71.3734 83.695 71.2744 83.255L73.0454 83.277ZM84.1884 90.757C84.1884 91.175 84.5844 91.428 85.3434 91.428C85.9264 91.428 86.3114 91.263 86.3114 90.625C86.3114 90.504 86.3114 90.35 86.3004 90.152C86.0034 90.108 85.7064 90.075 85.3984 90.075C84.6174 90.075 84.1884 90.383 84.1884 90.757ZM87.6314 83.101C87.5984 83.321 87.5764 83.596 87.5654 83.882C87.5544 83.992 87.5544 84.157 87.5544 84.333C88.4564 84.289 89.3694 84.201 90.3374 84.036L90.3264 85.301C89.6004 85.389 88.5994 85.488 87.5324 85.543C87.5324 85.928 87.5324 86.335 87.5324 86.676C88.6434 86.621 89.5784 86.533 90.4694 86.412L90.4584 87.71C89.4684 87.82 88.6104 87.897 87.5544 87.93C87.5764 88.348 87.5984 88.799 87.6314 89.239C89.0174 89.635 90.0734 90.372 90.7114 90.9L89.9194 92.132C89.3254 91.582 88.5774 90.999 87.6974 90.603C87.7084 90.757 87.7084 90.889 87.7084 91.01C87.7084 91.945 86.9934 92.671 85.5414 92.671C83.7814 92.671 82.8574 92 82.8574 90.834C82.8574 89.723 83.8804 88.942 85.5744 88.942C85.8054 88.942 86.0364 88.953 86.2564 88.975C86.2344 88.634 86.2234 88.282 86.2124 87.952C86.0254 87.952 85.8384 87.952 85.6404 87.952C85.0024 87.952 83.7484 87.897 83.0224 87.809L83.0114 86.511C83.7264 86.643 85.0794 86.72 85.6624 86.72C85.8384 86.72 86.0144 86.72 86.1904 86.72C86.1904 86.357 86.1904 85.961 86.2014 85.587C86.0584 85.587 85.9264 85.587 85.7944 85.587C85.1014 85.587 83.8254 85.488 83.0994 85.389L83.0664 84.135C83.8584 84.267 85.1124 84.377 85.7834 84.377C85.9264 84.377 86.0694 84.377 86.2124 84.377C86.2124 84.168 86.2124 83.992 86.2124 83.86C86.2124 83.651 86.1904 83.31 86.1464 83.101H87.6314ZM97.2454 83.277C97.1794 83.739 97.1244 84.3 97.1024 84.74C97.0584 85.928 96.9704 88.392 96.9704 89.756C96.9704 90.867 97.6304 91.23 98.4884 91.23C100.303 91.23 101.458 90.185 102.25 88.986L103.251 90.196C102.547 91.252 100.985 92.726 98.4774 92.726C96.6734 92.726 95.5074 91.934 95.5074 90.053C95.5074 88.579 95.6174 85.686 95.6174 84.74C95.6174 84.223 95.5734 83.695 95.4744 83.255L97.2454 83.277ZM108.487 91.087C108.487 91.406 108.883 91.648 109.499 91.648C109.994 91.648 110.236 91.384 110.236 90.878C110.236 90.779 110.236 90.669 110.236 90.548C110.016 90.515 109.796 90.493 109.576 90.493C108.872 90.493 108.487 90.724 108.487 91.087ZM111.512 85.026C111.479 85.235 111.424 85.708 111.424 86.093V86.61C112.15 86.588 113.228 86.533 113.965 86.456L113.998 87.677C113.261 87.743 112.161 87.787 111.424 87.798C111.424 88.271 111.468 89.008 111.512 89.69C112.656 90.064 113.591 90.735 114.185 91.285L113.426 92.484C112.953 92 112.326 91.439 111.578 91.043C111.589 91.153 111.589 91.241 111.589 91.318C111.589 92.132 111.138 92.869 109.664 92.869C108.333 92.869 107.244 92.308 107.244 91.153C107.244 90.097 108.146 89.404 109.741 89.404C109.895 89.404 110.038 89.415 110.181 89.426C110.148 88.81 110.115 88.161 110.115 87.666V86.115C110.115 85.686 110.071 85.224 110.027 85.026H111.512ZM124.899 88.403C124.899 87.677 124.327 87.083 123.293 87.083C122.083 87.083 120.994 87.457 120.433 87.622C120.114 87.71 119.685 87.886 119.366 88.007L118.948 86.434C119.322 86.401 119.795 86.324 120.158 86.247C120.961 86.06 122.193 85.741 123.48 85.741C125.218 85.741 126.439 86.731 126.439 88.458C126.439 90.812 124.261 92.275 121.203 92.693L120.411 91.329C123.139 91.021 124.899 90.119 124.899 88.403ZM120.576 83.123C121.852 83.398 124.349 83.607 125.515 83.618L125.295 84.971C124.008 84.883 121.621 84.663 120.356 84.443L120.576 83.123ZM130.971 89.228L130.74 85.169L130.685 83.64H132.313L132.258 85.169L132.027 89.228H130.971ZM131.499 92.154C130.927 92.154 130.498 91.692 130.498 91.098C130.498 90.493 130.927 90.042 131.499 90.042C132.071 90.042 132.511 90.493 132.511 91.098C132.511 91.692 132.071 92.154 131.499 92.154Z" fill="#A2A2A2"/>
<g clip-path="url(#clip0_312_10)">
<path d="M95.795 8.09583C95.5681 7.83057 95.2864 7.6176 94.9694 7.47159C94.6523 7.32557 94.3074 7.24998 93.9583 7.25H72.2083C71.8652 7.25043 71.5261 7.32393 71.2136 7.46561C70.9011 7.60728 70.6223 7.81388 70.3958 8.07167C70.1688 8.33026 69.9996 8.63435 69.8996 8.9636C69.7996 9.29284 69.771 9.63966 69.8158 9.98083L72.2325 28.1058C72.2738 28.4232 72.3771 28.7293 72.5367 29.0067C72.6962 29.2842 72.9089 29.5274 73.1625 29.7227C73.4161 29.9179 73.7056 30.0613 74.0146 30.1446C74.3236 30.2279 74.646 30.2496 74.9633 30.2083C75.2807 30.1671 75.5868 30.0637 75.8642 29.9041C76.1417 29.7446 76.3849 29.5319 76.5802 29.2784C76.7754 29.0248 76.9188 28.7352 77.0021 28.4262C77.0854 28.1172 77.1071 27.7949 77.0658 27.4775L75.1083 12.76C75.0947 12.6775 75.1007 12.5928 75.1259 12.5131C75.1511 12.4333 75.1947 12.3606 75.2533 12.3008C75.3041 12.2392 75.3665 12.1883 75.437 12.151C75.5075 12.1137 75.5847 12.0907 75.6642 12.0833H90.3333C90.4219 12.0784 90.5104 12.0957 90.5906 12.1337C90.6708 12.1717 90.7402 12.2291 90.7925 12.3008C90.8515 12.3653 90.8952 12.4422 90.9203 12.5259C90.9454 12.6096 90.9513 12.6979 90.9375 12.7842L88.3033 28.6617C88.1976 29.3026 88.3508 29.9593 88.7292 30.4873C89.1076 31.0153 89.6803 31.3713 90.3213 31.4771C90.6386 31.5294 90.9632 31.5188 91.2764 31.4457C91.5897 31.3727 91.8854 31.2386 92.1469 31.0512C92.6749 30.6728 93.0309 30.1001 93.1367 29.4592L96.375 10.1258C96.4382 9.76563 96.4189 9.39578 96.3184 9.04415C96.2179 8.69251 96.039 8.36826 95.795 8.09583Z" fill="#A2A2A2"/>
<path d="M87.9167 33.8334H73.4167C73.3042 33.8374 73.1932 33.8072 73.0983 33.7468C73.0033 33.6864 72.929 33.5986 72.885 33.495L70.565 29C70.4773 28.8172 70.345 28.6594 70.1803 28.5412C70.0156 28.4229 69.8238 28.348 69.6225 28.3234C69.4194 28.3 69.2136 28.3275 69.0238 28.4034C68.8339 28.4794 68.666 28.6013 68.535 28.7584L63.9917 34.3409C63.6179 34.737 63.1091 34.9784 62.5658 35.0175H60.1492C59.9864 35.0142 59.8247 35.0439 59.6736 35.1046C59.5226 35.1654 59.3854 35.2561 59.2703 35.3712C59.1552 35.4863 59.0646 35.6235 59.0038 35.7745C58.943 35.9255 58.9134 36.0873 58.9167 36.25V50.75C58.9127 50.9383 58.9547 51.1247 59.0389 51.2931C59.1231 51.4615 59.247 51.6069 59.4 51.7167C64.9583 55.8975 69.26 58 72.2083 58H85.6208C86.6731 58.178 87.7533 57.9396 88.6329 57.3352C89.5124 56.7308 90.1223 55.8078 90.3333 54.7617C91.5107 49.052 92.318 43.2722 92.75 37.4584C92.75 35.6459 91.0825 33.8334 87.9167 33.8334ZM53.6725 32.625H46.2292C46.0689 32.625 45.9153 32.6887 45.802 32.802C45.6887 32.9153 45.625 33.069 45.625 33.2292V54.9792C45.625 55.1394 45.6887 55.2931 45.802 55.4064C45.9153 55.5197 46.0689 55.5834 46.2292 55.5834H53.6725C53.8746 55.6071 54.0795 55.588 54.2737 55.5274C54.468 55.4668 54.6473 55.366 54.8 55.2315C54.9527 55.097 55.0754 54.9319 55.1601 54.7468C55.2449 54.5618 55.2897 54.361 55.2917 54.1575V34.0509C55.2897 33.8474 55.2449 33.6466 55.1601 33.4615C55.0754 33.2765 54.9527 33.1114 54.8 32.9769C54.6473 32.8424 54.468 32.7416 54.2737 32.6809C54.0795 32.6203 53.8746 32.6013 53.6725 32.625ZM79.4583 21.75C79.4583 22.7114 79.8403 23.6335 80.5201 24.3133C81.1999 24.9931 82.1219 25.375 83.0833 25.375C84.0447 25.375 84.9668 24.9931 85.6466 24.3133C86.3264 23.6335 86.7083 22.7114 86.7083 21.75C86.7083 20.7886 86.3264 19.8666 85.6466 19.1868C84.9668 18.5069 84.0447 18.125 83.0833 18.125C82.1219 18.125 81.1999 18.5069 80.5201 19.1868C79.8403 19.8666 79.4583 20.7886 79.4583 21.75ZM66.1667 26.5834C66.5194 26.5879 66.8688 26.5152 67.1904 26.3703C67.512 26.2255 67.7979 26.012 68.0282 25.7448C68.2585 25.4777 68.4276 25.1633 68.5235 24.8239C68.6194 24.4845 68.6398 24.1282 68.5833 23.78L65.5142 5.53418C65.4547 5.37857 65.4547 5.20647 65.5142 5.05085C65.5879 4.95254 65.6899 4.87905 65.8064 4.84019C65.923 4.80133 66.0487 4.79894 66.1667 4.83335H85.5C86.1409 4.83335 86.7556 4.57874 87.2088 4.12553C87.6621 3.67231 87.9167 3.05762 87.9167 2.41668C87.9167 1.77574 87.6621 1.16106 87.2088 0.707843C86.7556 0.25463 86.1409 1.78951e-05 85.5 1.78951e-05H62.5417C62.189 -0.00453089 61.8396 0.068177 61.518 0.213037C61.1964 0.357896 60.9104 0.571396 60.6801 0.838546C60.4498 1.1057 60.2808 1.42002 60.1849 1.75945C60.089 2.09888 60.0685 2.45518 60.125 2.80335L63.75 24.5534C63.8426 25.1252 64.1376 25.6447 64.5812 26.0173C65.0248 26.3899 65.5874 26.5908 66.1667 26.5834Z" fill="#A2A2A2"/>
</g>
<path d="M70.2929 118.707C70.6834 119.098 71.3166 119.098 71.7071 118.707L78.0711 112.343C78.4616 111.953 78.4616 111.319 78.0711 110.929C77.6805 110.538 77.0474 110.538 76.6569 110.929L71 116.586L65.3431 110.929C64.9526 110.538 64.3195 110.538 63.9289 110.929C63.5384 111.319 63.5384 111.953 63.9289 112.343L70.2929 118.707ZM71 101H70V118H71H72V101H71Z" fill="#A2A2A2"/>
<defs>
<clipPath id="clip0_312_10">
<rect width="58" height="58" fill="white" transform="translate(42)"/>
</clipPath>
</defs>
</svg>
