<svg viewBox="0 0 15 15" fill="none" xmlns="http://www.w3.org/2000/svg">
<circle cx="7.5" cy="7.5" r="7.5" fill="black"/>
<g clip-path="url(#clip0_60_120)">
<path d="M12.2869 7.6629C12.2868 7.37319 12.1717 7.09535 11.9669 6.89049C11.762 6.68563 11.4842 6.57052 11.1945 6.57046L9.46654 6.57046L7.52542 3.65322C7.40243 3.46861 7.20365 3.37755 7.02709 3.33979C6.84292 3.30112 6.65229 3.30568 6.47018 3.35311C6.29722 3.39837 6.10622 3.49165 5.98379 3.66127C5.84692 3.84978 5.82832 4.08548 5.93132 4.31951L6.91965 6.57046L5.56736 6.57074C5.35553 6.32172 5.16814 6.11433 4.94049 5.97663C4.66481 5.80978 4.35832 5.75815 3.93911 5.75815C3.89433 5.7581 3.85014 5.76827 3.80988 5.78788C3.76963 5.80748 3.73438 5.83601 3.70681 5.87129C3.67923 5.90657 3.66007 5.94767 3.65078 5.99147C3.64148 6.03527 3.6423 6.08061 3.65316 6.12405L4.03877 7.6629L3.65427 9.20231C3.64346 9.24571 3.64268 9.29099 3.65198 9.33474C3.66129 9.37848 3.68043 9.41953 3.70797 9.45477C3.7355 9.49001 3.7707 9.51852 3.81089 9.53812C3.85109 9.55773 3.89522 9.56793 3.93994 9.56794C4.35915 9.56794 4.66564 9.5163 4.94132 9.34945C5.16897 9.21175 5.35609 9.00464 5.56819 8.75534L6.9202 8.75534L5.93159 11.0066C5.8286 11.2406 5.84747 11.4766 5.98434 11.6645C6.10705 11.8344 6.2975 11.9277 6.47101 11.973C6.65305 12.0203 6.84358 12.0247 7.02764 11.986C7.20421 11.9483 7.40299 11.8572 7.52569 11.6729L9.46682 8.75562L11.1945 8.75534C11.338 8.75547 11.4801 8.7273 11.6127 8.67244C11.7453 8.61759 11.8657 8.53712 11.9672 8.43566C12.0687 8.33419 12.1491 8.21371 12.204 8.08111C12.2589 7.94851 12.287 7.8064 12.2869 7.6629Z" fill="#ffffff"/>
</g>
<defs>
<clipPath id="clip0_60_120">
<rect width="9.42277" height="9.42277" fill="white" transform="translate(7.32581 1) rotate(45)"/>
</clipPath>
</defs>
</svg>