<svg viewBox="0 0 40 53" fill="none" xmlns="http://www.w3.org/2000/svg">
<path d="M20 0C31.0467 0 40 8.89737 40 19.875C40 27.889 37.1912 30.1221 22.0557 51.9316C21.8258 52.2605 21.5189 52.5289 21.1621 52.7148C20.8053 52.9008 20.4087 52.9981 20.0059 52.999C19.6029 52.9999 19.2054 52.9042 18.8477 52.7197C18.4901 52.5353 18.1824 52.2682 17.9512 51.9404L17.9463 51.9316L17.9443 51.9404C2.80878 30.1265 1.67141e-07 27.889 0 19.875C0 8.89738 8.95333 5.12117e-07 20 0ZM18.083 32.958V36.583H21.708V32.958H18.083ZM20.5 12.417C18.5772 12.417 16.7327 13.1804 15.373 14.54C14.0135 15.8997 13.25 17.7442 13.25 19.667H16.875C16.875 18.7057 17.2568 17.7833 17.9365 17.1035C18.6163 16.4237 19.5386 16.042 20.5 16.042C24.5116 16.3562 25.2365 20.1859 22.3125 22.8926C21.3096 23.6901 19.6901 24.403 18.8926 25.6113C18.083 26.8197 18.083 28.5241 18.083 30.542H21.708C21.708 29.3337 21.7081 28.125 22.5176 27.1221C23.315 26.1071 24.9346 25.3098 25.9375 24.1016C29.78 19.2078 26.9646 12.6828 20.5 12.417Z" fill="currentColor"/>
</svg>
