<svg width="81" height="63" viewBox="0 0 81 63" fill="none" xmlns="http://www.w3.org/2000/svg">
<path d="M0 0V5.875C0 22.1292 8.65583 36.3467 21.5417 44.2583V62.6667H80.2917V54.8333C80.2917 44.415 59.4158 39.1667 48.9583 39.1667H47.9792C29.375 39.1667 13.7083 23.5 13.7083 5.875V0M48.9583 0C44.8033 0 40.8184 1.65059 37.8803 4.58866C34.9423 7.52673 33.2917 11.5116 33.2917 15.6667C33.2917 19.8217 34.9423 23.8066 37.8803 26.7447C40.8184 29.6827 44.8033 31.3333 48.9583 31.3333C53.1134 31.3333 57.0983 29.6827 60.0363 26.7447C62.9744 23.8066 64.625 19.8217 64.625 15.6667C64.625 11.5116 62.9744 7.52673 60.0363 4.58866C57.0983 1.65059 53.1134 0 48.9583 0Z" fill="white"/>
</svg>